<?xml version="1.0" standalone="no" ?>
<!DOCTYPE svg PUBLIC "-//W3C//DTD SVG 20010904//EN" "http://www.w3.org/TR/2001/REC-SVG-20010904/DTD/svg10.dtd">
<svg version="1.0" xmlns="http://www.w3.org/2000/svg" width="500.000000pt" height="500.000000pt" viewBox="0 0 500.000000 500.000000" preserveAspectRatio="xMidYMid meet">
  <style type="text/css">
    path {
      fill: #021521;
    } 
    @media (prefers-color-scheme: dark) {
      path {
        fill: #ddd;
      }
    }
  </style>

  <g transform="translate(0.000000,500.000000) scale(0.100000,-0.100000)" stroke="none">
    <path d="M4690 4733 c-14 -3 -28 -9 -31 -15 -3 -5 -42 -14 -85 -19 -309 -37
-403 -54 -415 -71 -3 -5 -77 -12 -165 -15 -87 -3 -162 -10 -165 -15 -3 -5 -77
-11 -165 -14 -100 -4 -173 -11 -197 -20 -26 -10 -81 -14 -176 -14 -77 0 -146
-3 -155 -6 -9 -3 -16 -17 -16 -29 0 -21 -6 -24 -55 -30 -49 -7 -55 -10 -55
-31 0 -15 -6 -24 -15 -24 -10 0 -15 -10 -15 -30 0 -23 -4 -30 -20 -30 -15 0
-20 -7 -20 -25 0 -18 -5 -25 -20 -25 -13 0 -20 -7 -20 -20 0 -15 -7 -20 -25
-20 -18 0 -25 -5 -25 -20 0 -15 -7 -20 -25 -20 -20 0 -25 -5 -25 -25 0 -16 -6
-25 -15 -25 -9 0 -15 -9 -15 -25 0 -18 -5 -25 -20 -25 -16 0 -20 -7 -20 -30 0
-23 -4 -30 -20 -30 -11 0 -20 -7 -20 -15 0 -9 -8 -19 -17 -22 -10 -4 -23 -13
-29 -21 -17 -23 -154 -11 -154 14 0 8 -10 14 -25 14 -16 0 -25 6 -25 15 0 9
-9 15 -25 15 -18 0 -25 5 -25 20 0 16 -7 20 -30 20 -23 0 -30 4 -30 20 0 13
-7 20 -20 20 -13 0 -20 7 -20 20 0 16 -7 20 -30 20 -20 0 -30 5 -30 15 0 9 -9
15 -25 15 -18 0 -25 5 -25 20 0 15 -7 20 -25 20 -16 0 -25 6 -25 15 0 8 -9 15
-20 15 -16 0 -20 7 -20 30 0 23 -4 30 -20 30 -15 0 -20 7 -20 25 0 16 -6 25
-15 25 -10 0 -15 10 -15 30 0 20 -5 30 -15 30 -8 0 -15 9 -15 19 0 27 -18 31
-138 31 -109 0 -262 18 -262 31 0 3 -57 10 -128 14 -70 4 -130 12 -134 18 -4
6 -70 12 -165 15 -87 3 -160 8 -163 12 -3 4 -173 11 -377 15 l-373 7 0 -175 0
-176 55 -6 c30 -4 55 -11 55 -16 0 -5 11 -9 25 -9 18 0 25 -5 25 -20 0 -16 7
-20 30 -20 20 0 30 -5 30 -15 0 -8 9 -15 20 -15 13 0 20 -7 20 -20 0 -16 7
-20 30 -20 20 0 30 -5 30 -15 0 -9 9 -15 25 -15 20 0 25 -5 25 -25 0 -21 5
-25 30 -25 20 0 30 -5 30 -15 0 -8 9 -15 20 -15 17 0 20 -7 20 -39 0 -21 3
-53 6 -70 5 -24 3 -31 -9 -31 -9 0 -17 -12 -20 -32 -10 -62 -25 -107 -41 -123
-9 -9 -16 -23 -16 -31 0 -8 -4 -14 -9 -14 -5 0 -17 -20 -27 -45 -9 -25 -20
-45 -25 -45 -4 0 -13 -16 -19 -35 -6 -19 -19 -43 -28 -52 -16 -15 -17 -124
-20 -1405 -2 -1385 -2 -1388 18 -1388 13 0 20 -7 20 -20 0 -11 7 -20 15 -20 9
0 15 -9 15 -25 0 -16 6 -25 15 -25 10 0 15 -10 15 -30 0 -23 4 -30 20 -30 15
0 20 -7 20 -25 0 -20 5 -25 25 -25 20 0 25 -5 25 -25 0 -20 5 -25 25 -25 14 0
25 -6 25 -14 0 -21 56 -26 316 -26 l241 0 -3 23 c-5 39 -34 219 -49 307 -8 47
-24 141 -35 210 -11 69 -27 163 -35 210 -8 47 -24 141 -35 210 -11 69 -27 161
-35 205 -12 65 -15 204 -15 753 0 441 3 672 10 672 6 0 10 11 10 25 0 14 4 25
8 25 4 0 14 16 21 36 15 41 63 94 86 94 8 0 15 4 15 9 0 17 57 33 78 22 12 -6
29 -11 39 -11 53 0 139 -60 211 -144 18 -23 32 -63 32 -97 0 -16 4 -29 9 -29
5 0 12 -27 16 -60 5 -41 11 -60 21 -60 9 0 14 -11 14 -31 0 -22 5 -32 20 -36
11 -3 20 -14 20 -24 0 -12 7 -19 20 -19 15 0 20 -7 20 -25 0 -16 6 -25 15 -25
10 0 15 -10 15 -30 0 -20 5 -30 15 -30 8 0 15 -8 15 -18 0 -11 9 -29 20 -42
11 -13 20 -29 20 -37 0 -7 4 -13 9 -13 5 0 14 -13 21 -30 7 -16 16 -30 21 -30
5 0 9 -6 9 -13 0 -12 12 -30 53 -79 9 -12 17 -25 17 -30 0 -5 6 -15 13 -22 6
-8 19 -24 27 -36 8 -12 21 -28 28 -36 6 -7 12 -17 12 -22 0 -5 8 -18 17 -30
38 -45 53 -66 53 -74 0 -10 16 -31 43 -56 9 -9 17 -22 17 -29 0 -7 5 -13 10
-13 6 0 10 -6 10 -13 0 -8 8 -23 18 -35 9 -11 24 -30 32 -41 13 -20 24 -21
157 -21 l143 0 0 30 c0 23 4 30 20 30 13 0 22 9 26 25 3 14 10 25 14 25 5 0
14 16 21 35 7 19 16 35 20 35 4 0 13 15 20 33 7 17 19 38 26 45 7 7 13 23 13
34 0 11 9 28 19 37 11 10 27 36 36 59 10 23 20 42 24 42 4 0 15 23 26 50 11
28 23 50 27 50 3 0 12 16 19 35 7 19 16 35 20 35 3 0 14 20 23 45 10 25 22 45
27 45 5 0 9 5 9 11 0 16 31 80 52 108 11 14 18 41 18 67 0 32 4 44 15 44 10 0
15 10 15 30 0 20 5 30 15 30 10 0 15 10 15 30 0 23 4 30 20 30 13 0 20 7 20
20 0 11 7 20 15 20 9 0 18 7 21 15 4 8 17 15 30 15 13 0 24 6 24 13 0 8 9 24
19 36 11 13 21 27 23 32 5 15 157 49 217 49 39 0 58 -5 70 -18 9 -10 35 -29
58 -42 24 -13 44 -33 47 -46 4 -13 11 -24 16 -24 6 0 10 -7 10 -15 0 -8 6 -15
13 -15 25 0 58 -38 64 -74 4 -26 11 -36 24 -36 17 0 19 -8 19 -65 0 -37 4 -65
10 -65 16 0 13 -477 -2 -482 -10 -4 -14 -55 -17 -196 -2 -106 -7 -192 -11
-192 -4 0 -10 -41 -13 -92 -3 -50 -10 -94 -15 -97 -6 -3 -13 -32 -17 -63 -4
-32 -11 -58 -16 -58 -5 0 -9 -16 -9 -35 0 -24 -5 -35 -15 -35 -9 0 -15 -9 -15
-25 0 -15 -6 -25 -14 -25 -10 0 -16 -19 -21 -65 -5 -45 -12 -65 -21 -65 -8 0
-14 -10 -14 -25 0 -16 -6 -25 -15 -25 -10 0 -15 -10 -15 -30 0 -20 -5 -30 -15
-30 -10 0 -15 -10 -15 -30 0 -20 -5 -30 -15 -30 -9 0 -15 -9 -15 -25 0 -16 -6
-25 -15 -25 -10 0 -15 -10 -15 -30 0 -20 -5 -30 -15 -30 -10 0 -15 -10 -15
-30 0 -23 -5 -30 -19 -30 -16 0 -19 -11 -24 -82 -4 -46 -7 -179 -7 -295 l0
-213 75 0 c60 0 75 -3 75 -15 0 -13 26 -15 175 -15 110 0 175 4 175 10 0 6 6
10 14 10 9 0 16 20 21 65 3 36 11 65 16 65 5 0 9 14 9 30 0 19 5 30 14 30 10
0 16 19 21 60 5 41 11 60 21 60 8 0 14 10 14 25 0 20 5 25 25 25 20 0 25 5 25
25 0 16 6 25 15 25 10 0 15 10 15 30 0 20 5 30 15 30 9 0 15 9 15 25 0 15 6
25 14 25 9 0 16 20 21 65 5 46 11 65 21 65 9 0 14 11 14 30 0 17 5 30 10 30 6
0 10 14 10 30 0 19 5 30 14 30 10 0 16 19 21 60 5 41 11 60 21 60 9 0 14 11
14 30 0 17 5 30 10 30 6 0 10 14 10 30 0 20 5 30 15 30 10 0 15 10 15 30 0 20
5 30 15 30 10 0 15 10 15 30 0 17 5 30 10 30 6 0 10 14 10 30 0 17 5 30 10 30
6 0 10 16 10 35 0 19 4 35 9 35 4 0 11 42 14 92 3 51 11 94 17 96 5 2 10 17
10 33 0 18 5 29 14 29 24 0 28 116 23 561 -3 332 -8 437 -22 532 -13 82 -22
117 -32 117 -8 0 -13 12 -13 30 0 20 -5 30 -15 30 -10 0 -15 10 -15 30 0 17
-4 30 -10 30 -5 0 -10 14 -10 30 0 20 -5 30 -15 30 -10 0 -15 10 -15 30 0 20
-5 30 -15 30 -10 0 -15 10 -15 30 0 23 -4 30 -20 30 -15 0 -20 7 -20 25 0 16
-6 25 -15 25 -10 0 -15 10 -15 30 0 23 -4 30 -20 30 -11 0 -20 7 -20 15 0 8
-18 22 -40 31 -21 9 -42 24 -45 34 -3 11 -15 22 -25 25 -48 15 -110 100 -110
150 0 31 37 71 87 91 20 9 43 22 51 30 8 8 27 18 43 21 15 3 30 11 33 19 4 11
28 14 96 14 55 0 90 4 90 10 0 6 8 14 17 17 10 4 32 21 49 37 17 17 41 38 53
46 27 18 60 44 81 63 8 8 25 18 38 21 12 4 22 12 22 17 0 5 9 9 21 9 11 0 27
6 34 13 36 31 45 37 64 37 11 0 26 7 35 15 8 8 24 15 35 15 28 0 34 29 26 141
-3 52 -8 158 -11 237 l-5 142 -72 -1 c-40 -1 -83 -4 -97 -6z" />
  </g>
</svg>